<svg width="22" height="22" viewBox="0 0 22 22" fill="none" xmlns="http://www.w3.org/2000/svg">
<path d="M18.8676 15.9153H18.8857C18.8586 15.8972 18.8225 15.8882 18.8135 15.8701C18.8225 15.8882 18.8496 15.9062 18.8676 15.9153Z" fill="black"/>
<path d="M20.447 6.50872V0.956899C20.4018 0.424286 19.9595 0 19.4088 0C19.0297 0 18.6957 0.216657 18.5151 0.514559C16.1319 2.44641 13.1348 4.92893 8.6482 4.92893H3.35818C3.29498 4.92893 3.22277 4.92893 3.15957 4.94699C3.14152 4.94699 3.14152 4.94699 3.13249 4.94699C1.39924 4.93796 0 6.3372 0 8.07045C0 9.80371 1.39924 11.2029 3.13249 11.2029C3.15055 11.2029 3.15055 11.2029 3.15957 11.2029C3.22277 11.2029 3.29498 11.221 3.35818 11.221H4.01717L5.52474 21.0969L10.0113 20.5192L9.78565 18.6956L10.6974 18.5602L10.4356 16.827L9.55094 16.9624L8.59404 11.2029C9.03638 11.2029 9.43359 11.221 9.68635 11.2481C13.8209 11.6001 16.511 13.9653 18.7047 15.7618C18.7318 15.7888 18.7769 15.825 18.813 15.852C18.8401 15.8701 18.8762 15.8791 18.8852 15.8972C19.0387 15.9874 19.2192 16.0326 19.3998 16.0326C19.9143 16.0326 20.3567 15.6534 20.4199 15.1479H20.4379V9.63218C21.3046 9.63218 21.9997 8.93708 21.9997 8.07045C22.0177 7.20383 21.3136 6.50872 20.447 6.50872ZM18.8672 13.9112C15.6715 11.4647 13.3334 10.0836 10.219 9.73149V6.41845C13.3334 6.06638 15.6805 4.66714 18.8672 2.20267V13.9112Z" fill="black"/>
</svg>
