<svg width="18" height="18" viewBox="0 0 18 18" fill="none" xmlns="http://www.w3.org/2000/svg">
<path d="M11.6849 9.00006C11.6849 10.4851 10.4849 11.6851 8.99994 11.6851C7.51494 11.6851 6.31494 10.4851 6.31494 9.00006C6.31494 7.51506 7.51494 6.31506 8.99994 6.31506C10.4849 6.31506 11.6849 7.51506 11.6849 9.00006Z" stroke="white" stroke-width="1.5" stroke-linecap="round" stroke-linejoin="round"/>
<path d="M9.00013 15.2025C11.6476 15.2025 14.1151 13.6425 15.8326 10.9425C16.5076 9.88504 16.5076 8.10754 15.8326 7.05004C14.1151 4.35004 11.6476 2.79004 9.00013 2.79004C6.35263 2.79004 3.88513 4.35004 2.16763 7.05004C1.49263 8.10754 1.49263 9.88504 2.16763 10.9425C3.88513 13.6425 6.35263 15.2025 9.00013 15.2025Z" stroke="white" stroke-width="1.5" stroke-linecap="round" stroke-linejoin="round"/>
</svg>
