<svg width="254" height="59" viewBox="0 0 254 59" fill="none" xmlns="http://www.w3.org/2000/svg">
<path d="M28.3819 56.7638C44.0568 56.7638 56.7638 44.0568 56.7638 28.3819C56.7638 12.707 44.0568 0 28.3819 0C12.707 0 0 12.707 0 28.3819C0 44.0568 12.707 56.7638 28.3819 56.7638Z" fill="#FC5600"/>
<path d="M37.9671 15.9333C37.994 16.0543 38.0075 16.1619 38.0075 16.2561C38.0075 16.6461 37.7721 16.9083 37.3014 17.0428C37.2745 17.0563 36.7971 17.1303 35.8691 17.2647C33.7845 17.5606 31.2224 17.8363 28.183 18.0919C27.3895 19.7864 26.2463 23.2563 24.7535 28.5014C27.2953 28.2728 29.8708 28.1316 32.4799 28.0778C33.26 28.0643 33.7777 28.3131 34.0333 28.8242C34.0871 28.9318 34.1879 29.3756 34.3359 30.1556C34.3628 30.2632 34.3762 30.3574 34.3762 30.4381C34.3762 30.8953 33.8517 31.2114 32.8027 31.3862C32.0495 31.5207 31.599 31.5812 31.4511 31.5678C31.1955 31.5543 31.0005 31.4266 30.866 31.1845C30.6777 30.8214 30.3213 30.6398 29.7968 30.6398C26.8649 30.6398 24.9485 30.6936 24.0474 30.8012C23.5632 32.0385 22.7092 35.3739 21.4853 40.8073C21.2567 41.8159 20.9272 42.3203 20.4968 42.3203C20.2144 42.3203 19.6361 42.1723 18.7619 41.8765C18.2374 41.7016 18.0424 41.1099 18.1769 40.1012C18.3652 38.8101 18.6274 37.5593 18.9636 36.3489C19.125 35.7841 19.6764 35.589 20.6179 35.7639C20.9272 35.0645 21.2971 33.9483 21.7274 32.4151C21.1626 30.9626 20.8801 30.2162 20.8801 30.1758C20.8801 30.0951 20.8869 30.0144 20.9003 29.9337C20.981 29.4899 21.6467 29.1335 22.8975 28.8645C22.9647 28.6359 24.0676 25.1257 26.2059 18.3339C24.081 18.4953 22.0031 18.8181 19.9723 19.3023C17.6725 19.8402 16.1528 20.4387 15.4131 21.0977C14.6331 21.7971 14.243 22.5031 14.243 23.2159C14.243 23.9825 14.6869 25.1929 15.5745 26.8472C15.6686 27.0086 15.7157 27.17 15.7157 27.3313C15.7157 27.6676 15.561 27.8357 15.2517 27.8357C15.0365 27.8357 14.8415 27.7079 14.6667 27.4524C13.6042 25.9326 12.9116 24.7491 12.5888 23.9018C12.3602 23.3101 12.1988 22.4561 12.1046 21.3398C11.9701 19.6856 13.3083 18.4752 16.1192 17.7086C19.8042 16.6999 23.5498 16.0274 27.3558 15.6912C27.7862 14.817 28.109 14.3799 28.3242 14.3799C28.6335 14.3799 29.1647 14.7162 29.9179 15.3886C30.2676 15.3886 31.3569 15.2541 33.186 14.9851C33.4953 14.9313 33.8181 14.696 34.1543 14.2791C34.4502 13.889 35.1563 13.6671 36.2725 13.6133C36.8912 13.5864 37.3148 13.8151 37.5435 14.2992C37.5704 14.3665 37.7116 14.9112 37.9671 15.9333Z" fill="white"/>
<path d="M43.535 19.1207C43.7502 19.2821 43.8578 19.4637 43.8578 19.6654C43.8578 20.0554 43.2795 20.6606 42.1229 21.481C41.3563 22.0055 40.6166 22.1938 39.9038 22.0459C39.5003 21.9652 39.1506 21.8172 38.8548 21.6021C38.7606 21.5214 38.6866 21.4407 38.6329 21.36C38.5925 21.2658 38.5858 21.1919 38.6127 21.1381C38.653 21.0843 38.7337 21.0708 38.8548 21.0977C40.0921 20.0218 40.9057 19.2485 41.2958 18.7778C41.6051 18.4281 41.827 18.2532 41.9615 18.2532C42.2036 18.2532 42.7281 18.5424 43.535 19.1207ZM40.6906 27.9567C40.3678 29.7723 39.5272 32.7916 38.1689 37.0146C38.5589 36.665 39.0968 36.0261 39.7827 35.0982C39.8769 34.9771 39.971 34.9166 40.0652 34.9166C40.2804 34.9166 40.3073 35.1049 40.1459 35.4815C40.0786 35.6294 39.5138 36.5507 38.4513 38.2452C37.6443 39.5363 37.0526 40.6795 36.676 41.6747C36.555 41.9841 36.3331 42.1387 36.0103 42.1387C35.6875 42.1387 35.2504 41.9841 34.699 41.6747C34.3493 41.4864 34.1745 41.3452 34.1745 41.2511C34.1745 41.1704 34.2485 40.9956 34.3964 40.7266C35.1227 39.4489 35.9296 37.3105 36.8172 34.3114C37.6645 31.4064 38.142 29.2478 38.2496 27.8357C38.2899 27.2305 38.2294 26.9279 38.068 26.9279C37.9469 26.9279 37.7318 27.0758 37.4224 27.3717L36.1717 28.5418C35.7279 28.9452 35.506 28.9654 35.506 28.6023C35.506 28.4947 35.5665 28.3602 35.6875 28.1988C36.3196 27.3112 36.9921 26.4706 37.7049 25.6771C37.9201 25.4485 38.1285 25.3342 38.3302 25.3342C38.5454 25.3342 38.8615 25.4821 39.2784 25.778C39.8971 25.9394 40.24 26.0402 40.3073 26.0806C40.6166 26.2689 40.7712 26.6185 40.7712 27.1296C40.7712 27.3717 40.7443 27.6474 40.6906 27.9567Z" fill="white"/>
<path d="M62.3732 38.8005V19.7269H75.0021V23.0517H66.4059V27.5966H74.1639V30.9215H66.4059V38.8005H62.3732Z" fill="#181818"/>
<path d="M77.6401 38.8005V24.4953H81.6076V38.8005H77.6401ZM79.6331 22.6512C79.0433 22.6512 78.5373 22.4557 78.1151 22.0645C77.6991 21.6671 77.4911 21.1922 77.4911 20.6396C77.4911 20.0932 77.6991 19.6244 78.1151 19.2333C78.5373 18.8359 79.0433 18.6372 79.6331 18.6372C80.223 18.6372 80.7259 18.8359 81.1419 19.2333C81.5641 19.6244 81.7752 20.0932 81.7752 20.6396C81.7752 21.1922 81.5641 21.6671 81.1419 22.0645C80.7259 22.4557 80.223 22.6512 79.6331 22.6512Z" fill="#181818"/>
<path d="M88.1013 24.4953L90.7276 29.4965L93.4192 24.4953H97.4891L93.3447 31.6479L97.6009 38.8005H93.5496L90.7276 33.8552L87.9523 38.8005H83.8544L88.1013 31.6479L84.0034 24.4953H88.1013Z" fill="#181818"/>
<path d="M103.44 34.6841L103.45 29.925H104.027L108.609 24.4953H113.163L107.007 31.6852H106.067L103.44 34.6841ZM99.8454 38.8005V19.7269H103.813V38.8005H99.8454ZM108.786 38.8005L104.577 32.5699L107.222 29.7666L113.434 38.8005H108.786Z" fill="#181818"/>
<path d="M119.189 39.0706C118.276 39.0706 117.463 38.9123 116.749 38.5957C116.035 38.2728 115.47 37.7978 115.054 37.1707C114.644 36.5374 114.439 35.7489 114.439 34.8051C114.439 34.0104 114.585 33.3429 114.877 32.8028C115.169 32.2626 115.566 31.828 116.069 31.4989C116.572 31.1698 117.143 30.9215 117.783 30.7538C118.429 30.5862 119.105 30.4682 119.813 30.3999C120.645 30.313 121.316 30.2323 121.825 30.1578C122.334 30.0771 122.703 29.9591 122.933 29.8039C123.163 29.6487 123.278 29.4189 123.278 29.1147V29.0588C123.278 28.469 123.091 28.0126 122.719 27.6898C122.353 27.3669 121.831 27.2055 121.154 27.2055C120.44 27.2055 119.872 27.3638 119.45 27.6804C119.028 27.9909 118.748 28.382 118.612 28.8539L114.942 28.5559C115.129 27.6867 115.495 26.9354 116.041 26.3021C116.588 25.6626 117.292 25.1721 118.155 24.8306C119.025 24.4829 120.03 24.309 121.173 24.309C121.968 24.309 122.728 24.4022 123.455 24.5884C124.187 24.7747 124.836 25.0634 125.401 25.4546C125.972 25.8457 126.422 26.3486 126.752 26.9633C127.081 27.5718 127.245 28.3013 127.245 29.1519V38.8005H123.483V36.8168H123.371C123.141 37.2638 122.834 37.6581 122.449 37.9996C122.064 38.3349 121.601 38.5988 121.061 38.7912C120.521 38.9775 119.897 39.0706 119.189 39.0706ZM120.325 36.3325C120.909 36.3325 121.424 36.2177 121.871 35.9879C122.318 35.752 122.669 35.4353 122.924 35.038C123.178 34.6406 123.306 34.1905 123.306 33.6875V32.1695C123.181 32.2502 123.011 32.3247 122.793 32.393C122.582 32.4551 122.343 32.5141 122.076 32.5699C121.809 32.6196 121.542 32.6662 121.275 32.7096C121.008 32.7469 120.766 32.781 120.549 32.8121C120.083 32.8804 119.677 32.989 119.329 33.138C118.981 33.2871 118.711 33.4888 118.519 33.7434C118.326 33.9918 118.23 34.3022 118.23 34.6747C118.23 35.2149 118.425 35.6278 118.817 35.9134C119.214 36.1928 119.717 36.3325 120.325 36.3325Z" fill="#181818"/>
<path d="M130.323 38.8005V24.4953H134.17V26.9913H134.319C134.579 26.1034 135.017 25.4328 135.632 24.9796C136.246 24.5201 136.954 24.2904 137.755 24.2904C137.954 24.2904 138.168 24.3028 138.398 24.3276C138.628 24.3525 138.829 24.3866 139.003 24.4301V27.9505C138.817 27.8946 138.559 27.845 138.23 27.8015C137.901 27.7581 137.6 27.7363 137.327 27.7363C136.743 27.7363 136.222 27.8636 135.762 28.1182C135.309 28.3665 134.949 28.7142 134.682 29.1613C134.421 29.6083 134.291 30.1236 134.291 30.7073V38.8005H130.323Z" fill="#181818"/>
<path d="M149.381 24.4953V27.4755H140.766V24.4953H149.381ZM142.722 21.068H146.689V34.4047C146.689 34.771 146.745 35.0566 146.857 35.2615C146.968 35.4602 147.124 35.5999 147.322 35.6806C147.527 35.7613 147.763 35.8017 148.03 35.8017C148.216 35.8017 148.403 35.7861 148.589 35.7551C148.775 35.7178 148.918 35.6899 149.017 35.6713L149.641 38.6236C149.443 38.6857 149.163 38.7571 148.803 38.8378C148.443 38.9247 148.005 38.9775 147.49 38.9961C146.534 39.0334 145.696 38.9061 144.975 38.6143C144.261 38.3225 143.706 37.8692 143.308 37.2545C142.911 36.6399 142.715 35.8637 142.722 34.9262V21.068Z" fill="#181818"/>
<path d="M162.142 19.7269V38.8005H158.11V19.7269H162.142Z" fill="#181818"/>
<path d="M169.353 30.5303V38.8005H165.386V24.4953H169.167V27.0192H169.334C169.651 26.1872 170.182 25.5291 170.927 25.0448C171.672 24.5543 172.575 24.309 173.637 24.309C174.631 24.309 175.497 24.5263 176.236 24.961C176.974 25.3956 177.549 26.0165 177.959 26.8236C178.368 27.6246 178.573 28.5807 178.573 29.6921V38.8005H174.606V30.3999C174.612 29.5245 174.388 28.8415 173.935 28.351C173.482 27.8543 172.858 27.6059 172.063 27.6059C171.529 27.6059 171.057 27.7208 170.648 27.9505C170.244 28.1803 169.927 28.5155 169.698 28.9564C169.474 29.391 169.359 29.9156 169.353 30.5303Z" fill="#181818"/>
<path d="M189.309 24.4953V27.4755H180.694V24.4953H189.309ZM182.65 21.068H186.618V34.4047C186.618 34.771 186.673 35.0566 186.785 35.2615C186.897 35.4602 187.052 35.5999 187.251 35.6806C187.456 35.7613 187.692 35.8017 187.959 35.8017C188.145 35.8017 188.331 35.7861 188.518 35.7551C188.704 35.7178 188.847 35.6899 188.946 35.6713L189.57 38.6236C189.371 38.6857 189.092 38.7571 188.732 38.8378C188.372 38.9247 187.934 38.9775 187.419 38.9961C186.462 39.0334 185.624 38.9061 184.904 38.6143C184.19 38.3225 183.634 37.8692 183.237 37.2545C182.839 36.6399 182.644 35.8637 182.65 34.9262V21.068Z" fill="#181818"/>
<path d="M198.259 39.0799C196.788 39.0799 195.521 38.7819 194.459 38.1859C193.404 37.5836 192.591 36.733 192.019 35.634C191.448 34.5288 191.162 33.2219 191.162 31.7131C191.162 30.2416 191.448 28.9502 192.019 27.8388C192.591 26.7274 193.395 25.8612 194.431 25.2404C195.475 24.6195 196.698 24.309 198.101 24.309C199.045 24.309 199.923 24.4611 200.737 24.7654C201.556 25.0634 202.27 25.5135 202.879 26.1158C203.493 26.7181 203.971 27.4755 204.313 28.3883C204.654 29.2948 204.825 30.3565 204.825 31.5734V32.6631H192.746V30.2044H201.09C201.09 29.6331 200.966 29.1271 200.718 28.6863C200.47 28.2454 200.125 27.9009 199.684 27.6525C199.25 27.3979 198.744 27.2707 198.166 27.2707C197.564 27.2707 197.03 27.4104 196.564 27.6898C196.105 27.9629 195.745 28.3324 195.484 28.798C195.223 29.2575 195.09 29.7697 195.083 30.3347V32.6724C195.083 33.3802 195.214 33.9918 195.475 34.5071C195.742 35.0224 196.117 35.4198 196.601 35.6992C197.086 35.9786 197.66 36.1183 198.324 36.1183C198.765 36.1183 199.169 36.0562 199.535 35.932C199.901 35.8079 200.215 35.6216 200.476 35.3732C200.737 35.1249 200.935 34.8207 201.072 34.4605L204.741 34.7027C204.555 35.5843 204.173 36.3542 203.596 37.0124C203.025 37.6643 202.286 38.1735 201.379 38.5398C200.479 38.8999 199.439 39.0799 198.259 39.0799Z" fill="#181818"/>
<path d="M207.414 38.8005V24.4953H211.261V26.9913H211.41C211.67 26.1034 212.108 25.4328 212.723 24.9796C213.338 24.5201 214.045 24.2904 214.846 24.2904C215.045 24.2904 215.259 24.3028 215.489 24.3276C215.719 24.3525 215.92 24.3866 216.094 24.4301V27.9505C215.908 27.8946 215.65 27.845 215.321 27.8015C214.992 27.7581 214.691 27.7363 214.418 27.7363C213.834 27.7363 213.313 27.8636 212.853 28.1182C212.4 28.3665 212.04 28.7142 211.773 29.1613C211.512 29.6083 211.382 30.1236 211.382 30.7073V38.8005H207.414Z" fill="#181818"/>
<path d="M218.146 38.8005V24.4953H222.113V38.8005H218.146ZM220.139 22.6512C219.549 22.6512 219.043 22.4557 218.62 22.0645C218.205 21.6671 217.996 21.1922 217.996 20.6396C217.996 20.0932 218.205 19.6244 218.62 19.2333C219.043 18.8359 219.549 18.6372 220.139 18.6372C220.728 18.6372 221.231 18.8359 221.647 19.2333C222.07 19.6244 222.281 20.0932 222.281 20.6396C222.281 21.1922 222.07 21.6671 221.647 22.0645C221.231 22.4557 220.728 22.6512 220.139 22.6512Z" fill="#181818"/>
<path d="M231.755 39.0799C230.308 39.0799 229.057 38.7726 228.001 38.1579C226.952 37.537 226.142 36.674 225.571 35.5688C224.999 34.4574 224.714 33.1691 224.714 31.7038C224.714 30.2261 224.999 28.9346 225.571 27.8295C226.142 26.7181 226.952 25.855 228.001 25.2404C229.057 24.6195 230.308 24.309 231.755 24.309C233.201 24.309 234.449 24.6195 235.499 25.2404C236.554 25.855 237.367 26.7181 237.939 27.8295C238.51 28.9346 238.795 30.2261 238.795 31.7038C238.795 33.1691 238.51 34.4574 237.939 35.5688C237.367 36.674 236.554 37.537 235.499 38.1579C234.449 38.7726 233.201 39.0799 231.755 39.0799ZM231.773 36.0065C232.431 36.0065 232.981 35.8203 233.422 35.4478C233.863 35.069 234.195 34.5537 234.418 33.9017C234.648 33.2498 234.763 32.5078 234.763 31.6759C234.763 30.8439 234.648 30.1019 234.418 29.45C234.195 28.798 233.863 28.2827 233.422 27.904C232.981 27.5252 232.431 27.3358 231.773 27.3358C231.109 27.3358 230.55 27.5252 230.097 27.904C229.65 28.2827 229.311 28.798 229.082 29.45C228.858 30.1019 228.746 30.8439 228.746 31.6759C228.746 32.5078 228.858 33.2498 229.082 33.9017C229.311 34.5537 229.65 35.069 230.097 35.4478C230.55 35.8203 231.109 36.0065 231.773 36.0065Z" fill="#181818"/>
<path d="M173.165 19.1793L169.552 15.91C169.489 15.8529 169.407 15.8213 169.322 15.8213C169.236 15.8213 169.154 15.8529 169.091 15.91L165.477 19.1793C165.444 19.2096 165.416 19.2462 165.396 19.2872C165.376 19.3281 165.365 19.3725 165.362 19.4179C165.36 19.4633 165.366 19.5087 165.381 19.5516C165.396 19.5945 165.419 19.634 165.45 19.6679C165.58 19.7388 165.725 19.7782 165.873 19.783C166.021 19.7878 166.168 19.7579 166.302 19.6956L169.551 17.0697L172.538 20.1292C172.682 20.2571 173.065 19.8059 173.193 19.6622C173.224 19.6283 173.247 19.5887 173.262 19.5458C173.277 19.5028 173.284 19.4573 173.282 19.4118C173.279 19.3663 173.268 19.3218 173.248 19.2807C173.228 19.2397 173.201 19.2029 173.167 19.1725L173.165 19.1793Z" fill="#FC5600"/>
<path d="M172.118 17.7347C172.066 17.7355 172.017 17.716 171.98 17.6803C171.943 17.6446 171.922 17.5957 171.921 17.5443L171.901 16.383L170.74 16.4027C170.688 16.4036 170.639 16.384 170.602 16.3484C170.565 16.3127 170.544 16.2638 170.543 16.2124C170.542 16.1611 170.562 16.1115 170.597 16.0745C170.633 16.0376 170.682 16.0164 170.733 16.0155L172.282 15.9892L172.308 17.5377C172.309 17.5891 172.289 17.6387 172.254 17.6756C172.218 17.7125 172.169 17.7338 172.118 17.7347Z" fill="#FC5600"/>
</svg>
