<svg width="25" height="25" viewBox="0 0 25 25" fill="none" xmlns="http://www.w3.org/2000/svg">
<path d="M7.81283 5.20801H17.1878C17.8337 5.20801 18.4066 5.22884 18.917 5.30176C21.6566 5.60384 22.3962 6.89551 22.3962 10.4163V14.583C22.3962 18.1038 21.6566 19.3955 18.917 19.6976C18.4066 19.7705 17.8337 19.7913 17.1878 19.7913H7.81283C7.16699 19.7913 6.59408 19.7705 6.08366 19.6976C3.34408 19.3955 2.60449 18.1038 2.60449 14.583V10.4163C2.60449 6.89551 3.34408 5.60384 6.08366 5.30176C6.59408 5.22884 7.16699 5.20801 7.81283 5.20801Z" stroke="black" stroke-width="2" stroke-linecap="round" stroke-linejoin="round"/>
<path d="M4.6875 2.08301H20.3125" stroke="black" stroke-width="2" stroke-linecap="round" stroke-linejoin="round"/>
<path d="M5.20801 22.917H20.833" stroke="black" stroke-width="2" stroke-linecap="round" stroke-linejoin="round"/>
</svg>
