<svg width="12" height="14" viewBox="0 0 12 14" fill="none" xmlns="http://www.w3.org/2000/svg">
<path d="M11 4V10C11 12.4 10.375 13 7.875 13H4.125C1.625 13 1 12.4 1 10V4C1 1.6 1.625 1 4.125 1H7.875C10.375 1 11 1.6 11 4Z" stroke="black" stroke-linecap="round" stroke-linejoin="round"/>
<path d="M7.25 3.1001H4.75" stroke="black" stroke-linecap="round" stroke-linejoin="round"/>
<path d="M6 11.2599C6.53503 11.2599 6.96875 10.8435 6.96875 10.3299C6.96875 9.81628 6.53503 9.3999 6 9.3999C5.46497 9.3999 5.03125 9.81628 5.03125 10.3299C5.03125 10.8435 5.46497 11.2599 6 11.2599Z" stroke="black" stroke-linecap="round" stroke-linejoin="round"/>
</svg>
