<svg width="32" height="32" viewBox="0 0 32 32" fill="none" xmlns="http://www.w3.org/2000/svg">
<circle cx="15.8342" cy="15.8342" r="15.8342" fill="#EAEAEA"/>
<path d="M15.5826 16.4188C16.8164 16.4188 17.8166 15.4186 17.8166 14.1847C17.8166 12.9509 16.8164 11.9507 15.5826 11.9507C14.3487 11.9507 13.3485 12.9509 13.3485 14.1847C13.3485 15.4186 14.3487 16.4188 15.5826 16.4188Z" stroke="#181818" stroke-width="1.5" stroke-linecap="round" stroke-linejoin="round"/>
<path d="M21.167 14.1847C21.167 19.2114 15.5818 23.1209 15.5818 23.1209C15.5818 23.1209 9.9967 19.2114 9.9967 14.1847C9.9967 12.7035 10.5851 11.2829 11.6325 10.2355C12.68 9.18804 14.1006 8.59961 15.5818 8.59961C17.0631 8.59961 18.4837 9.18804 19.5311 10.2355C20.5785 11.2829 21.167 12.7035 21.167 14.1847V14.1847Z" stroke="#181818" stroke-width="1.5" stroke-linecap="round" stroke-linejoin="round"/>
</svg>
