<svg width="18" height="18" viewBox="0 0 18 18" fill="none" xmlns="http://www.w3.org/2000/svg">
<path d="M12.7355 1.43433C13.7281 1.43719 14.6792 1.81788 15.3811 2.49328C16.0829 3.16868 16.4786 4.0839 16.4815 5.03905V12.2477C16.4786 13.2029 16.0829 14.1181 15.3811 14.7935C14.6792 15.4689 13.7281 15.8496 12.7355 15.8524H5.24421C4.25161 15.8496 3.30052 15.4689 2.59864 14.7935C1.89676 14.1181 1.50114 13.2029 1.49818 12.2477V5.03905C1.50114 4.0839 1.89676 3.16868 2.59864 2.49328C3.30052 1.81788 4.25161 1.43719 5.24421 1.43433H12.7355ZM12.7355 -0.00732422H5.24421C2.35984 -0.00732422 0 2.26349 0 5.03905V12.2477C0 15.0233 2.35984 17.2941 5.24421 17.2941H12.7355C15.6199 17.2941 17.9797 15.0233 17.9797 12.2477V5.03905C17.9797 2.26349 15.6199 -0.00732422 12.7355 -0.00732422Z" fill="white"/>
<path d="M13.8593 5.03914C13.637 5.03914 13.4198 4.97572 13.235 4.85691C13.0502 4.73809 12.9062 4.5692 12.8211 4.37161C12.736 4.17403 12.7138 3.9566 12.7572 3.74685C12.8005 3.53709 12.9075 3.34441 13.0647 3.19318C13.2219 3.04195 13.4221 2.93897 13.6401 2.89724C13.858 2.85552 14.084 2.87693 14.2893 2.95878C14.4947 3.04062 14.6702 3.17922 14.7936 3.35704C14.9171 3.53487 14.983 3.74394 14.983 3.9578C14.9833 4.09989 14.9545 4.24064 14.8981 4.37198C14.8418 4.50331 14.759 4.62264 14.6546 4.72311C14.5502 4.82358 14.4262 4.90322 14.2897 4.95745C14.1532 5.01169 14.007 5.03945 13.8593 5.03914ZM8.98992 5.75978C9.58262 5.75978 10.162 5.92891 10.6548 6.24577C11.1476 6.56264 11.5317 7.01301 11.7586 7.53994C11.9854 8.06686 12.0447 8.64668 11.9291 9.20606C11.8135 9.76544 11.528 10.2793 11.1089 10.6826C10.6898 11.0859 10.1559 11.3605 9.57456 11.4718C8.99325 11.583 8.3907 11.5259 7.84312 11.3077C7.29553 11.0894 6.8275 10.7198 6.49822 10.2456C6.16893 9.77135 5.99317 9.21382 5.99317 8.64348C5.99402 7.87892 6.31002 7.14592 6.87184 6.6053C7.43365 6.06468 8.1954 5.7606 8.98992 5.75978ZM8.98992 4.31812C8.10091 4.31812 7.23186 4.5718 6.49268 5.04708C5.75349 5.52235 5.17736 6.19788 4.83715 6.98824C4.49694 7.77859 4.40793 8.64828 4.58137 9.48731C4.7548 10.3264 5.1829 11.0971 5.81153 11.702C6.44016 12.3069 7.24108 12.7188 8.11301 12.8857C8.98494 13.0526 9.88872 12.967 10.7101 12.6396C11.5314 12.3122 12.2334 11.7578 12.7273 11.0465C13.2212 10.3352 13.4848 9.49895 13.4848 8.64348C13.4848 7.49632 13.0113 6.39615 12.1683 5.58499C11.3254 4.77383 10.1821 4.31812 8.98992 4.31812Z" fill="white"/>
</svg>
