<svg width="19" height="19" viewBox="0 0 19 19" fill="none" xmlns="http://www.w3.org/2000/svg">
<path d="M17.1822 0.620117H2.12166C1.29872 0.620117 0.579712 1.21224 0.579712 2.02551V17.1195C0.579712 17.9372 1.29872 18.6659 2.12166 18.6659H17.1778C18.0052 18.6659 18.6255 17.9324 18.6255 17.1195V2.02551C18.6303 1.21224 18.0052 0.620117 17.1822 0.620117ZM6.1735 15.6622H3.58828V7.62413H6.1735V15.6622ZM4.97031 6.40201H4.95178C4.12442 6.40201 3.58868 5.78612 3.58868 5.01515C3.58868 4.23008 4.13851 3.62869 4.98441 3.62869C5.83031 3.62869 6.34791 4.22565 6.36644 5.01515C6.36604 5.78612 5.83031 6.40201 4.97031 6.40201ZM15.6217 15.6622H13.0365V11.2671C13.0365 10.2142 12.6603 9.49477 11.725 9.49477C11.0104 9.49477 10.5875 9.97814 10.3993 10.449C10.3289 10.6182 10.3099 10.8486 10.3099 11.0838V15.6622H7.72471V7.62413H10.3099V8.74273C10.6861 8.20699 11.2738 7.43602 12.6414 7.43602C14.3384 7.43602 15.6221 8.55462 15.6221 10.9662L15.6217 15.6622Z" fill="white"/>
</svg>
