<svg width="24" height="24" viewBox="0 0 24 24" fill="none" xmlns="http://www.w3.org/2000/svg">
<path d="M13.372 2.09409C10.9801 1.76635 8.55038 2.31471 6.53112 3.638C4.51187 4.96129 3.03932 6.97023 2.38518 9.29415C1.73104 11.6181 1.93944 14.1002 2.97193 16.2825C4.00442 18.4648 5.79133 20.2 8.00297 21.1681C7.94352 20.4003 7.99812 19.6279 8.16497 18.8761C8.34997 18.0371 9.46097 13.4131 9.46097 13.4131C9.23853 12.9176 9.12791 12.3792 9.13697 11.8361C9.13697 10.3511 9.99397 9.24309 11.06 9.24309C11.2515 9.24031 11.4413 9.27879 11.6166 9.35593C11.7919 9.43306 11.9486 9.54704 12.0759 9.69012C12.2032 9.83319 12.2983 10.002 12.3545 10.1851C12.4108 10.3682 12.427 10.5612 12.402 10.7511C12.402 11.6511 11.824 13.0131 11.522 14.2911C11.4623 14.5255 11.4585 14.7706 11.5109 15.0067C11.5633 15.2428 11.6705 15.4633 11.8237 15.6504C11.977 15.8375 12.172 15.986 12.3932 16.0839C12.6144 16.1818 12.8554 16.2264 13.097 16.2141C14.994 16.2141 16.267 13.7831 16.267 10.9131C16.267 8.71209 14.81 7.06609 12.124 7.06609C11.4814 7.04113 10.8405 7.14699 10.2401 7.37726C9.63976 7.60753 9.09243 7.9574 8.63138 8.40564C8.17034 8.85387 7.80518 9.39112 7.55809 9.98478C7.31099 10.5784 7.18711 11.2161 7.19397 11.8591C7.16533 12.5724 7.39547 13.2721 7.84197 13.8291C7.9254 13.8914 7.98632 13.9791 8.01554 14.079C8.04476 14.179 8.0407 14.2857 8.00397 14.3831C7.95797 14.5671 7.84197 15.0061 7.79597 15.1681C7.78627 15.2226 7.76391 15.2741 7.73071 15.3184C7.6975 15.3627 7.65436 15.3986 7.60476 15.4232C7.55516 15.4478 7.50048 15.4604 7.44511 15.4601C7.38975 15.4597 7.33524 15.4463 7.28597 15.4211C5.90197 14.8671 5.24997 13.3441 5.24997 11.6051C5.24997 8.75809 7.63397 5.35009 12.404 5.35009C16.2 5.35009 18.723 8.12709 18.723 11.0971C18.723 15.0061 16.547 17.9451 13.33 17.9451C12.8491 17.9606 12.3722 17.8545 11.9432 17.6367C11.5143 17.4189 11.1472 17.0964 10.876 16.6991C10.876 16.6991 10.297 19.0151 10.184 19.4531C9.95162 20.2099 9.60821 20.9281 9.16497 21.5841C10.088 21.8641 11.047 22.0041 12.011 22.0001C13.3244 22.0009 14.6251 21.7427 15.8386 21.2402C17.0521 20.7378 18.1546 20.001 19.0831 19.072C20.0115 18.143 20.7477 17.04 21.2494 15.8262C21.7511 14.6124 22.0085 13.3115 22.007 11.9981C22.0064 9.5828 21.1317 7.24933 19.5444 5.42882C17.9572 3.60831 15.7647 2.42378 13.372 2.09409Z" fill="white"/>
</svg>
