<svg width="21" height="17" viewBox="0 0 21 17" fill="none" xmlns="http://www.w3.org/2000/svg">
<path d="M20.5798 2.57841C19.8339 2.90229 19.0447 3.11566 18.2371 3.2118C19.0858 2.71518 19.724 1.92623 20.0321 0.992893C19.2297 1.46176 18.3533 1.79073 17.4405 1.96573C17.0561 1.56315 16.5937 1.24289 16.0816 1.02441C15.5695 0.805936 15.0183 0.693803 14.4614 0.694831C12.207 0.694831 10.3825 2.49148 10.3825 4.70624C10.3809 5.01431 10.4163 5.32146 10.4878 5.62113C8.87115 5.54539 7.28816 5.13329 5.84005 4.41118C4.39195 3.68908 3.11064 2.67287 2.07807 1.42757C1.71582 2.03781 1.52425 2.73409 1.52336 3.44362C1.52336 4.83457 2.24958 6.06408 3.34615 6.78439C2.69647 6.76899 2.06009 6.59715 1.49105 6.28348V6.33316C1.49105 8.27884 2.89957 9.89748 4.76379 10.2659C4.41323 10.3593 4.05198 10.4066 3.68917 10.4067C3.43173 10.4071 3.17488 10.3822 2.92236 10.3322C3.44061 11.926 4.94897 13.0851 6.73571 13.1182C5.28385 14.2363 3.50135 14.8406 1.66836 14.8362C1.343 14.8357 1.01794 14.8164 0.694824 14.7782C2.55953 15.9681 4.7271 16.5975 6.93954 16.5914C14.4527 16.5914 18.5573 10.477 18.5573 5.17403C18.5573 5.00016 18.5528 4.82629 18.5445 4.65657C19.3412 4.09027 20.0304 3.38654 20.5798 2.57841Z" fill="white"/>
</svg>
